<svg width="177" height="28" viewBox="0 0 177 28" fill="none" xmlns="http://www.w3.org/2000/svg">
<path d="M18.584 1.872V5.94H11.888V27H6.848V5.94H0.152V1.872H18.584ZM40.8013 16.596C40.8013 17.316 40.7533 17.964 40.6573 18.54H26.0773C26.1973 19.98 26.7013 21.108 27.5893 21.924C28.4773 22.74 29.5693 23.148 30.8653 23.148C32.7373 23.148 34.0693 22.344 34.8613 20.736H40.2973C39.7213 22.656 38.6173 24.24 36.9853 25.488C35.3533 26.712 33.3493 27.324 30.9733 27.324C29.0533 27.324 27.3253 26.904 25.7893 26.064C24.2773 25.2 23.0893 23.988 22.2253 22.428C21.3853 20.868 20.9653 19.068 20.9653 17.028C20.9653 14.964 21.3853 13.152 22.2253 11.592C23.0653 10.032 24.2413 8.832 25.7533 7.992C27.2653 7.152 29.0053 6.732 30.9733 6.732C32.8693 6.732 34.5613 7.14 36.0493 7.956C37.5613 8.772 38.7253 9.936 39.5413 11.448C40.3813 12.936 40.8013 14.652 40.8013 16.596ZM35.5813 15.156C35.5573 13.86 35.0893 12.828 34.1773 12.06C33.2653 11.268 32.1493 10.872 30.8293 10.872C29.5813 10.872 28.5253 11.256 27.6613 12.024C26.8213 12.768 26.3053 13.812 26.1133 15.156H35.5813ZM43.1841 16.956C43.1841 14.94 43.5801 13.152 44.3721 11.592C45.1881 10.032 46.2801 8.832 47.6481 7.992C49.0401 7.152 50.5881 6.732 52.2921 6.732C53.7801 6.732 55.0761 7.032 56.1801 7.632C57.3081 8.232 58.2081 8.988 58.8801 9.9V7.056H63.9561V27H58.8801V24.084C58.2321 25.02 57.3321 25.8 56.1801 26.424C55.0521 27.024 53.7441 27.324 52.2561 27.324C50.5761 27.324 49.0401 26.892 47.6481 26.028C46.2801 25.164 45.1881 23.952 44.3721 22.392C43.5801 20.808 43.1841 18.996 43.1841 16.956ZM58.8801 17.028C58.8801 15.804 58.6401 14.76 58.1601 13.896C57.6801 13.008 57.0321 12.336 56.2161 11.88C55.4001 11.4 54.5241 11.16 53.5881 11.16C52.6521 11.16 51.7881 11.388 50.9961 11.844C50.2041 12.3 49.5561 12.972 49.0521 13.86C48.5721 14.724 48.3321 15.756 48.3321 16.956C48.3321 18.156 48.5721 19.212 49.0521 20.124C49.5561 21.012 50.2041 21.696 50.9961 22.176C51.8121 22.656 52.6761 22.896 53.5881 22.896C54.5241 22.896 55.4001 22.668 56.2161 22.212C57.0321 21.732 57.6801 21.06 58.1601 20.196C58.6401 19.308 58.8801 18.252 58.8801 17.028ZM93.6465 6.768C96.0945 6.768 98.0625 7.524 99.5505 9.036C101.063 10.524 101.819 12.612 101.819 15.3V27H96.7785V15.984C96.7785 14.424 96.3825 13.236 95.5905 12.42C94.7985 11.58 93.7185 11.16 92.3505 11.16C90.9825 11.16 89.8905 11.58 89.0745 12.42C88.2825 13.236 87.8865 14.424 87.8865 15.984V27H82.8465V15.984C82.8465 14.424 82.4505 13.236 81.6585 12.42C80.8665 11.58 79.7865 11.16 78.4185 11.16C77.0265 11.16 75.9225 11.58 75.1065 12.42C74.3145 13.236 73.9185 14.424 73.9185 15.984V27H68.8785V7.056H73.9185V9.468C74.5665 8.628 75.3945 7.968 76.4025 7.488C77.4345 7.008 78.5625 6.768 79.7865 6.768C81.3465 6.768 82.7385 7.104 83.9625 7.776C85.1865 8.424 86.1345 9.36 86.8065 10.584C87.4545 9.432 88.3905 8.508 89.6145 7.812C90.8625 7.116 92.2065 6.768 93.6465 6.768ZM127.445 1.872V27H122.405V16.308H111.641V27H106.601V1.872H111.641V12.204H122.405V1.872H127.445ZM151.234 7.056V27H146.158V24.48C145.51 25.344 144.658 26.028 143.602 26.532C142.57 27.012 141.442 27.252 140.218 27.252C138.658 27.252 137.278 26.928 136.078 26.28C134.878 25.608 133.93 24.636 133.234 23.364C132.562 22.068 132.226 20.532 132.226 18.756V7.056H137.266V18.036C137.266 19.62 137.662 20.844 138.454 21.708C139.246 22.548 140.326 22.968 141.694 22.968C143.086 22.968 144.178 22.548 144.97 21.708C145.762 20.844 146.158 19.62 146.158 18.036V7.056H151.234ZM161.247 9.972C161.895 9.012 162.783 8.232 163.911 7.632C165.063 7.032 166.371 6.732 167.835 6.732C169.539 6.732 171.075 7.152 172.443 7.992C173.835 8.832 174.927 10.032 175.719 11.592C176.535 13.128 176.943 14.916 176.943 16.956C176.943 18.996 176.535 20.808 175.719 22.392C174.927 23.952 173.835 25.164 172.443 26.028C171.075 26.892 169.539 27.324 167.835 27.324C166.347 27.324 165.039 27.036 163.911 26.46C162.807 25.86 161.919 25.092 161.247 24.156V27H156.207V0.36H161.247V9.972ZM171.795 16.956C171.795 15.756 171.543 14.724 171.039 13.86C170.559 12.972 169.911 12.3 169.095 11.844C168.303 11.388 167.439 11.16 166.503 11.16C165.591 11.16 164.727 11.4 163.911 11.88C163.119 12.336 162.471 13.008 161.967 13.896C161.487 14.784 161.247 15.828 161.247 17.028C161.247 18.228 161.487 19.272 161.967 20.16C162.471 21.048 163.119 21.732 163.911 22.212C164.727 22.668 165.591 22.896 166.503 22.896C167.439 22.896 168.303 22.656 169.095 22.176C169.911 21.696 170.559 21.012 171.039 20.124C171.543 19.236 171.795 18.18 171.795 16.956Z" fill="#FAB600"/>
</svg>
